# xmcd
#
# Track frame offsets: 
#        150
#        13876
#        26614
#        47443
#        61957
#        76681
#        94584
#        109302
#        120747
#        137003
#
# Disc length: 1971 seconds
#
# Revision: 0
# Processed by: cddbd v1.5.2PL0 Copyright (c) Steve Scherf et al.
# Submitted via: ExactAudioCopyFreeDBPlugin 1.0
#
DISCID=7807b10a
DTITLE=Audie Blaylock And Redline - Hard Country
DYEAR=2014
DGENRE=Country
TTITLE0=A Real Good Way To LOse
TTITLE1=The Chair
TTITLE2=Home Is Where The Heart Is
TTITLE3=A Natural Thing
TTITLE4=Philadelphia Lawyer
TTITLE5=14 Day's
TTITLE6=Stormy Horizon's
TTITLE7=On The Road
TTITLE8=A Grandmother's Love
TTITLE9=Newton's Grove
EXTD=
EXTT0=
EXTT1=
EXTT2=
EXTT3=
EXTT4=
EXTT5=
EXTT6=
EXTT7=
EXTT8=
EXTT9=
PLAYORDER=
